<?xml version="1.0" standalone="no"?><!DOCTYPE svg PUBLIC "-//W3C//DTD SVG 1.1//EN" "http://www.w3.org/Graphics/SVG/1.1/DTD/svg11.dtd"><svg t="1548315290556" class="icon" style="" viewBox="0 0 1024 1024" version="1.1" xmlns="http://www.w3.org/2000/svg" p-id="18417" xmlns:xlink="http://www.w3.org/1999/xlink" width="48" height="48"><defs><style type="text/css"></style></defs><path d="M307.4 653.5s-80.7-109.5-25-278.2l-77.3-113.8s-22.6 95.6-2.2 200.8c38.9 161.4 104.5 191.2 104.5 191.2z" fill="#2BA7E5" p-id="18418"></path><path d="M318.5 627.2s-6.3-212.2 243.8-382L541.8 63.9c-48.3 45-118.8 117.6-175.5 217.7-110.3 188.6-47.8 345.6-47.8 345.6z" fill="#EA7A27" p-id="18419"></path><path d="M950.2 88.4s-112.9 210.8-141.9 439c-89.2-80.1-315.9-51.7-447.4 70.2 0.9-2.8 1.8-5.5 2.8-8.2 43.5-115 106.2-306.4 586.5-501z" fill="#83CB3A" p-id="18420"></path><path d="M766.8 935.6c-54.7 12.5-100.1 3.6-98.9 3.5 105.7-9 201.7-52.6 205.3-171.5-0.5-71.3-37.1-123.4-100.7-155.7 0 0 80.7 18 119.2 112.3-18-123.9-122.7-199.8-292.1-184.1 0 0 79.3-29.2 183.2 5.2-97.4-51.1-194.6-29.2-282 4.9C375.7 599.5 329.6 671 261 725.2c-15.4 10.2-30.5 22.8-41.8 30.4-48.9 32.9-49.7 28.1-40.6 30.9 30.4-14 78.9-40.3 107.9-64.8 32.3-23.9 51.2-15.1-53 52-75.9 46.7-130.8 62.7-165.1 77.4-12.8 13.8 22.4 4.2 79.4-15.9 45.1-18.1 80.2-39.8 85.5-36.3 5.3 3.5-3.5 12.3-28.2 24-23 10.8-30.9 22.1 4 10.1 31.1-11.8 60.5-26.3 88.4-41.9 4.7-2.7 7.4-4.4 7.4-4.4l-2.4 1.6c133.6-75.8 240.4-175.7 353.9-125.2 26.2 14.2 59.8 42.7 66.4 74.8-3.6-58.5-60.7-94.6-94.3-101.7-85.5-18-169.1 31.8-213 62-43.9 30.2-1.1-20.8 54.9-49.8 65-35.4 133.1-44.9 186.3-26.7 109.2 37.6 115.7 164.4 46.5 226.4 28.5-13 50-35.4 63.7-62.1-2.3 82.7-147.8 121.4-204 61.1-38.1-40.9 2.1-96.2 41.6-83.3 0 0-30.4 10.3-28 37.8 0.1 5 2 42.5 45 45.6 51.5 3.7 92.8-51 65.5-113.9-16.5-38.2-71.7-46.4-99-36.1 0 0-28.6-13.7-75.8 11-42.9 22.4-65.3 102.9-9.2 161.1 10 25.2 28.3 48.6 55.4 65.1 72 43.8 165.4 23.4 208.4 1.2zM324.7 686.3s7.2-7.9 23.7-23c16.6-15.1 35.3-31.6 41.6-31.5 6.4 0.1 4.1 2.7-20.2 25-24.2 22.3-26.1 23-36.1 33.1-10.1 10.1-15.7 11.1-16.9 8.9-1.2-2.1 7.9-12.5 7.9-12.5z" fill="#2BA7E5" p-id="18421"></path></svg>